<svg xmlns="http://www.w3.org/2000/svg" viewBox="0 0 208.2 35.6"><path d="M39.6 10.4c1.2 0 2.2.2 3.1.5.9.3 1.6.8 2.1 1.4.5.6.9 1.3 1.2 2.2.3.8.4 1.7.4 2.7 0 1-.1 1.9-.4 2.7-.3.8-.7 1.5-1.2 2.1-.6.6-1.3 1-2.1 1.4s-1.9.5-3.1.5c-1.2 0-2.2-.2-3-.5s-1.6-.8-2.2-1.4c-.5-.6-.9-1.3-1.2-2.1-.2-.8-.4-1.7-.4-2.7 0-1 .1-1.9.4-2.7.2-.8.6-1.5 1.2-2.2.5-.6 1.2-1.1 2.1-1.4s1.9-.5 3.1-.5zm0 10.9c1.2 0 2-.4 2.6-1.1s.8-1.7.8-3-.3-2.3-.8-3.1c-.5-.8-1.4-1.1-2.7-1.1-.6 0-1.2.1-1.6.3-.4.2-.8.5-1 .9-.3.4-.4.8-.5 1.3-.1.5-.2 1-.2 1.6 0 1.3.3 2.3.8 3 .5.8 1.4 1.2 2.6 1.2zm18.3-5.2c0-.5 0-.9-.1-1.3s-.2-.7-.4-1c-.2-.3-.4-.4-.8-.6-.3-.1-.8-.2-1.3-.2-.4 0-.8 0-1.2.1-.4.1-.7.2-.9.4-.3.2-.5.5-.6.9-.1.4-.2.9-.2 1.5v6.7c0 .3-.2.5-.5.7-.3.2-.7.3-1.2.3s-.9-.1-1.2-.3c-.3-.2-.5-.4-.5-.7V6.4c0-.3.2-.5.5-.7.3-.2.7-.3 1.2-.3s.8.1 1.1.3c.3.2.5.4.5.7v6.1c.2-.3.3-.6.6-.8.2-.3.5-.5.8-.7.3-.2.7-.4 1.1-.5.4-.1.8-.2 1.4-.2.7 0 1.3.1 1.9.3.6.2 1.1.5 1.6.8.4.4.8.8 1.1 1.4.3.6.4 1.2.4 2v7.7c0 .3-.1.5-.4.7-.3.2-.7.3-1.2.3s-.9-.1-1.2-.3c-.3-.2-.5-.4-.5-.7v-6.4zm9.9 6.6c0 .3-.2.5-.5.7-.3.2-.7.3-1.2.3s-.9-.1-1.2-.3-.5-.4-.5-.7V6.9c0-.4.1-.7.4-1 .2-.2.7-.3 1.3-.3s1.1.1 1.3.3c.2.2.4.6.4 1.1v8.4l5-4.5c.3-.3.7-.4 1.1-.4.4 0 .8.2 1.1.5.3.3.5.6.5 1s-.2.8-.6 1.2l-4.3 3.7 4.5 3.9c.5.5.7.9.7 1.3s-.2.7-.5 1c-.3.2-.6.4-1.1.4-.4 0-.8-.1-1.1-.4l-5.4-4.7v4.3zM78.3 7.8c0-.5.2-.8.5-1.1.3-.3.8-.5 1.3-.5s.9.2 1.3.5.5.7.5 1.1-.2.9-.6 1.2-.8.5-1.3.5-.9-.2-1.3-.5c-.3-.3-.4-.7-.4-1.2zm3.4 14.6c0 .3-.1.6-.4.8-.3.3-.7.4-1.2.4s-.9-.1-1.2-.4c-.3-.3-.4-.5-.4-.9V12c0-.5.2-.8.5-1 .4-.2.7-.3 1.1-.3.4 0 .8.1 1.1.3.4.2.5.6.5 1.1v10.3zM91 8.5c0-.3 0-.6.1-.8.1-.2.2-.4.4-.5.2-.1.4-.2.7-.2.3 0 .7-.1 1.3-.1h3.7c1.2 0 2.1.1 2.9.3.8.2 1.4.5 2 .9.5.4.9 1 1.1 1.6s.3 1.5.3 2.5-.1 1.8-.4 2.5c-.2.7-.6 1.3-1.1 1.7-.5.4-1.2.8-2 1-.8.2-1.8.3-2.9.3h-2.8v4.8c0 .3-.1.6-.4.9s-.7.4-1.3.4c-.6 0-1.1-.1-1.3-.4-.1-.4-.3-.7-.3-1V8.5zm3.5 6.5h2.8c1.1 0 1.9-.2 2.3-.7.4-.4.6-1.2.6-2.2 0-.5-.1-.9-.2-1.3-.1-.3-.4-.6-.6-.8s-.6-.3-.9-.4c-.4-.1-.7-.1-1.2-.1h-2.8V15zm16.2 8.9c-1.1 0-2-.2-2.8-.5-.8-.3-1.4-.8-2-1.3-.5-.6-.9-1.3-1.2-2.1s-.4-1.7-.4-2.7c0-1 .1-1.9.4-2.7s.7-1.6 1.2-2.2c.5-.6 1.2-1.1 2-1.4.8-.3 1.7-.5 2.8-.5 1 0 1.8.2 2.5.5s1.3.7 1.7 1.3c.4.5.8 1.2 1 1.9.2.7.3 1.5.3 2.2 0 .7-.1 1.2-.3 1.5-.2.3-.6.5-1.1.5h-7.2c0 .4 0 .7.1 1.1.1.3.2.7.5.9.2.3.6.5.9.7.4.2.9.3 1.5.3.8 0 1.4-.1 1.9-.3.4-.2.8-.5 1.1-.7.2-.2.4-.3.6-.4.2 0 .4-.1.5 0 .2 0 .3.1.4.2.1.1.2.1.3.2.3.2.5.6.4 1-.1.4-.3.8-.7 1.2-.4.4-1 .7-1.8 1-.7.2-1.6.3-2.6.3zm2.3-7.8c0-.4 0-.8-.1-1.1-.1-.4-.2-.7-.4-1-.2-.3-.4-.5-.7-.7-.3-.2-.7-.2-1.2-.2-.6 0-1.1.1-1.5.3s-.7.4-.9.8c-.2.3-.4.6-.4 1-.1.4-.1.7-.1 1h5.3zm10.1-2.5v5.3c0 .4 0 .8.1 1.1 0 .3.1.5.2.7.1.2.3.3.5.3.2.1.5.1.8.1.3 0 .6-.1.9-.2.3-.2.6-.3.9-.4.3-.1.6-.1.8 0 .2.1.4.4.4.9s-.1.8-.3 1.1c-.2.3-.5.5-.8.7-.3.2-.7.3-1.2.4-.4.1-.9.1-1.5.2-.6 0-1.1 0-1.6-.1s-1-.3-1.3-.5-.7-.6-.9-1c-.2-.4-.3-1-.3-1.7v-6.8h-1.1c-.5 0-.8-.1-1-.4-.2-.2-.3-.6-.3-1.1 0-.5.1-.8.2-1 .2-.2.5-.3.9-.3h1.1V9.6c0-.5.1-.9.3-1.1.2-.3.7-.4 1.4-.4s1.2.1 1.4.3.3.5.3.9v1.5h2.7c.6 0 1 .1 1.2.3s.3.5.3 1-.1.8-.3 1.1c-.2.2-.6.4-1.3.4h-2.5zM161 6.8c0-.4.1-.6.4-.8.3-.2.7-.3 1.3-.3s1 .1 1.3.3.4.5.4.9v15.9c0 .3-.1.5-.4.7-.3.2-.7.3-1.2.3s-.9-.1-1.2-.3c-.3-.2-.4-.4-.4-.7v-16zm6.7 1c0-.5.2-.8.5-1.1.3-.3.8-.5 1.3-.5s.9.2 1.3.5c.3.3.5.7.5 1.1s-.2.8-.5 1.1c-.3.3-.8.5-1.3.5s-.9-.2-1.3-.5c-.3-.2-.5-.6-.5-1.1zm3.4 14.6c0 .3-.1.6-.4.8-.3.3-.7.4-1.2.4s-.9-.1-1.2-.4-.4-.5-.4-.9V12c0-.5.2-.8.5-1 .3-.2.7-.3 1.1-.3.4 0 .8.1 1.1.3.3.2.5.6.5 1.1v10.3zm12.3-6.3c0-.5 0-.9-.1-1.3s-.2-.7-.4-1c-.2-.3-.4-.4-.8-.6-.3-.1-.8-.2-1.3-.2-.4 0-.8 0-1.2.1-.4.1-.7.2-.9.4s-.5.5-.6.9c-.1.4-.2.9-.2 1.5v6.7c0 .3-.2.5-.5.7-.3.2-.7.3-1.2.3s-.9-.1-1.2-.3c-.3-.2-.5-.4-.5-.7v-11c0-.3.2-.5.5-.7.3-.2.7-.3 1.2-.3s.8.1 1.1.3.5.4.5.7v1.2c.2-.3.3-.6.6-.9.2-.3.5-.5.8-.8.3-.2.7-.4 1.1-.6.4-.1.8-.2 1.4-.2.8 0 1.4.1 2 .3s1.1.5 1.6.8c.4.4.8.8 1 1.4.2.6.4 1.2.4 2v7.7c0 .3-.1.5-.4.7-.3.2-.7.3-1.2.3s-.9-.1-1.2-.3c-.3-.2-.5-.4-.5-.7v-6.4zm6.5-8.3c0-.5.2-.8.5-1.1.3-.3.8-.5 1.3-.5s.9.2 1.3.5c.3.3.5.7.5 1.1s-.2.9-.5 1.2c-.3.3-.8.5-1.3.5s-.9-.2-1.3-.5c-.3-.3-.5-.7-.5-1.2zm3.5 14.6c0 .3-.1.6-.4.8-.3.3-.7.4-1.2.4s-.9-.1-1.2-.4-.4-.5-.4-.9V12c0-.5.2-.8.5-1 .3-.2.7-.3 1.1-.3.4 0 .8.1 1.1.3.3.2.5.6.5 1.1v10.3zm2.7-5.2c0-.9.1-1.8.4-2.6.3-.8.7-1.5 1.3-2.2.6-.6 1.3-1.1 2.1-1.5.8-.4 1.8-.6 3-.6.9 0 1.7.1 2.5.4.7.3 1.3.6 1.7.9.1.1.3.3.4.5l.3.6c.1.2.1.4.1.7s-.1.4-.3.6l-.3.3c-.1.1-.3.2-.5.2h-.6c-.2 0-.4-.2-.6-.4-.4-.4-.7-.7-1.1-.9-.4-.2-.8-.3-1.4-.3-.5 0-1 .1-1.4.3-.4.2-.8.5-1.1.9s-.5.8-.7 1.3-.3 1.1-.3 1.7c0 .7.1 1.2.3 1.7.2.5.5.9.8 1.3.3.3.7.6 1.1.8.4.2.8.3 1.3.3h.8c.2 0 .4-.1.5-.1.1-.1.3-.1.4-.2.1-.1.2-.1.3-.2.2-.1.3-.2.5-.3l.6-.3c.2-.1.4-.1.6 0 .2 0 .5.1.7.3.4.2.6.5.7.7.1.3 0 .6-.3 1-.4.6-.9 1-1.8 1.3s-1.8.5-3 .5c-1.1 0-2.1-.2-2.9-.5-.9-.3-1.6-.8-2.2-1.3s-1-1.3-1.3-2.1c-.4-.8-.6-1.8-.6-2.8z"/><ellipse transform="rotate(-25.197 106.086 8.986)" cx="106.1" cy="9" rx="1.4" ry="1.6"/><ellipse transform="rotate(-8.922 109.612 8.138)" cx="109.6" cy="8.1" rx="1.2" ry="1.4"/><ellipse transform="rotate(-76.798 112.798 8.06)" cx="112.8" cy="8.1" rx="1.4" ry="1.1"/><ellipse transform="rotate(-60.33 115.333 9.549)" cx="115.3" cy="9.5" rx="1.4" ry="1.1"/><path d="M20.2 35.6c-7.5 0-10.1-3.2-10.3-3.6-.5-.6-.3-1.6.3-2 .6-.5 1.6-.3 2 .3 0 0 1.9 2.4 8 2.4 7.1 0 7.3-5.7 7.3-6v-8.9c0-.8.6-1.4 1.4-1.4.8 0 1.4.6 1.4 1.4v9c.1.1-.3 8.8-10.1 8.8z"/><path d="M24.8 25.3c-2.4 0-4-1.1-5-2.2-1 1.1-2.6 2.2-5 2.2-3.9 0-5.3-3.5-5.5-5.4V5.4c0-.8-.4-1.3-1-1.5-1.2-.2-3 .7-4.5 3.5-.9 1.7-1.1 3-.7 4 .5 1.2 2 1.7 2 1.7.8.2 1.2 1 1 1.8-.2.8-1 1.2-1.8 1-.1 0-2.8-.8-3.9-3.4-.8-1.9-.5-4.1.8-6.5C3.7 1.6 6.8.6 9 1.1c1.9.5 3.2 2.2 3.2 4.3v14.2c.1.5.5 2.7 2.6 2.7 2.7 0 3.7-2.3 3.7-2.4.2-.5.8-.9 1.3-.9.6 0 1.1.4 1.3.9 0 .1 1 2.4 3.7 2.4 2.2 0 2.6-2.3 2.6-2.7V3.5c0-.8.6-1.4 1.4-1.4.8 0 1.4.6 1.4 1.4v16.3c0 1.9-1.4 5.5-5.4 5.5z"/><path d="M22.8 17.9c0 1.1-1.3 2-2.9 2s-2.9-.9-2.9-2 1.3-1.7 2.9-1.7 2.9.6 2.9 1.7zm-2.9 11.3c-1.1 0-2.1-.4-2.8-1.1-1.3-1.5-1.2-3.7-1.2-4 0-.5.5-.9 1-.9s.9.5.9 1 0 1.8.7 2.5c.3.4.8.5 1.4.5.6 0 1.1-.2 1.4-.5.7-.7.7-2.1.7-2.5 0-.5.4-1 .9-1s1 .4 1 .9c0 .3.1 2.5-1.2 4-.7.7-1.7 1.1-2.8 1.1z"/><path d="M19.9 25.8c-.3 0-.5-.2-.5-.5v-2.5c0-.3.2-.5.5-.5s.5.2.5.5v2.5c0 .3-.3.5-.5.5z"/><ellipse cx="15.6" cy="11.1" rx="1.8" ry="2"/><path d="M12.4 28.2c.7.9.2 3-1 4s-3.4 1-4.1.1.5-2 1.7-3c1.4-1 2.7-2 3.4-1.1zM25 12.9c-.2 0-.4-.1-.5-.2-.7-.5-1.4-.2-1.4-.2-.3.2-.8.1-1.1-.1-.3-.3-.4-.7-.3-1 .1-.2.9-2.4 2.8-2.8.5-.1 1 .2 1.1.7.1.5-.2 1-.7 1.1-.2 0-.3.1-.5.2.3.1.7.3 1.1.5.4.3.5.9.2 1.3-.1.3-.4.5-.7.5zM147.1 26c-6.9 0-12.5-4.9-12.5-11 0-6 5.6-11 12.5-11 .7 0 1.4.1 2.1.2l6.5-4c.4-.3.9-.3 1.4 0 .4.2.7.7.7 1.2v8c.1.4.1.7-.1 1.1-.3.6-1 .9-1.6.7-.5-.1-.8-.5-1-.9-.2-.2-.5-.5-1.1-1-1.9-1.6-4.4-2.5-7-2.5-5.4 0-9.8 3.7-9.8 8.3 0 4.6 4.4 8.3 9.8 8.3 3.3 0 6.4-1.4 8.2-3.7.5-.6 1.3-.7 1.9-.2.6.5.7 1.3.2 1.9-2.2 2.8-6.1 4.6-10.2 4.6zm5.6-20.8c.8.4 1.6.8 2.4 1.4V3.7l-2.4 1.5z"/><path d="M150.5 21.8l-7.8 5v-5l7.8 5z"/><path d="M150.5 27.5c-.1 0-.3 0-.4-.1l-3.5-2.2-3.5 2.2c-.2.1-.5.2-.8 0-.2-.1-.4-.4-.4-.7v-4.9c0-.3.1-.5.4-.7.2-.1.5-.1.8 0l3.5 2.2 3.5-2.2c.2-.1.5-.2.8 0 .2.1.4.4.4.7v4.9c0 .3-.1.5-.4.7-.1.1-.2.1-.4.1zm-2.5-3.2l1.8 1.1v-2.2l-1.8 1.1zm-4.5-1.1v2.2l1.8-1.1-1.8-1.1zm5.7-14.1c-.6 0-1-.5-1-1v-2c0-.6.5-1 1-1 .6 0 1 .5 1 1V8c0 .6-.5 1.1-1 1.1zm-2.6-.6c-.6 0-1-.5-1-1V5.8c0-.6.5-1 1-1 .6 0 1 .5 1 1v1.6c.1.6-.4 1.1-1 1.1zm-2.5.6c-.6 0-1-.5-1-1v-2c0-.6.5-1 1-1s1 .5 1 1V8c0 .6-.4 1.1-1 1.1zm8.2 6.6c-.1 0-.1-.1-.1-.1 0-.1.1-.2.1-.2l1.8-.2c.1 0 .2.1.2.1 0 .1-.1.2-.1.2l-1.9.2zm1.7.8h-1.8c-.1 0-.1-.1-.1-.1l.1-.1h1.8c.1 0 .1.1.1.1s0 .1-.1.1zm-13-.8l-1.8-.2c-.1 0-.1-.1-.1-.2s.1-.1.2-.1l1.8.2c.1 0 .1.1.1.2-.1 0-.1.1-.2.1zm0 .8h-1.8c-.1 0-.1-.1-.1-.1l.1-.1h1.8c.1 0 .1.1.1.1s0 .1-.1.1z"/><ellipse cx="151.3" cy="12.4" rx="1.6" ry="1.8"/><ellipse cx="142" cy="12.4" rx="1.6" ry="1.8"/><path d="M146.6 20.7c-1 0-1.5-.4-1.8-.8-.8-.9-.6-2.3-.5-2.5.1-.3.3-.5.7-.5.3.1.5.3.5.7-.1.3-.1 1.1.3 1.6.2.2.5.3.9.3s.7-.1.9-.3c.4-.5.4-1.3.3-1.6 0-.3.2-.6.5-.6s.6.2.6.5c0 .2.2 1.6-.6 2.5-.3.3-.8.7-1.8.7zm0-4.7c-.1 0-.3 0-.4-.1l-.8-.6c-.3-.2-.4-.5-.3-.8.1-.3.4-.8 1.5-.8s1.4.5 1.5.7c.1.3 0 .7-.3.8l-.8.6c-.1.1-.2.2-.4.2zm-.3-.8z"/><path d="M146.6 18.6c-.2 0-.3-.1-.3-.3v-1.5c0-.2.1-.3.3-.3.2 0 .3.1.3.3v1.5c.1.2-.1.3-.3.3z"/><path d="M148.2 17.9c-.7 0-1.2-.2-1.6-.5-.3.3-.9.5-1.6.5-1.3 0-2-.7-2.3-1.1-.2-.3-.1-.6.2-.8.3-.2.6-.1.8.2 0 0 .4.5 1.2.5.8 0 1-.5 1-.5.1-.2.3-.4.6-.4s.5.2.6.4c0 .1.2.5 1 .5.9 0 1.2-.5 1.2-.5.2-.3.5-.4.8-.2.3.2.4.5.2.8-.1.4-.8 1.1-2.1 1.1zm-11.4-6c-.7 0-1.3-.6-1.3-1.3V1.3c0-.5.3-.9.7-1.2.4-.2 1-.2 1.4 0l6.7 4.3c.6.4.8 1.2.4 1.9-.4.6-1.2.8-1.9.4l-4.6-3v6.8c-.1.8-.7 1.4-1.4 1.4z"/></svg>