<svg id="レイヤー_1" xmlns="http://www.w3.org/2000/svg" viewBox="0 0 114.3 17" preserveAspectRatio="xMinYMid"><style>.st0{fill:#040000}</style><path class="st0" d="M20 7.3c.7 0 1.3.1 1.7.3.5.2.9.5 1.2.8.3.3.5.8.7 1.2.1.5.2 1 .2 1.5s-.1 1.1-.2 1.5c-.1.5-.4.8-.7 1.2-.3.3-.7.6-1.2.8-.5.2-1 .3-1.7.3s-1.2-.1-1.7-.3c-.5-.2-.9-.5-1.2-.8-.3-.3-.5-.7-.7-1.2-.1-.5-.2-1-.2-1.5s.1-1 .2-1.5.4-.9.6-1.2c.3-.3.7-.6 1.2-.8.5-.2 1.1-.3 1.8-.3zm0 6.1c.7 0 1.1-.2 1.5-.6.3-.4.5-.9.5-1.7 0-.7-.1-1.3-.4-1.7-.3-.4-.8-.6-1.5-.6-.4 0-.6.1-.9.2-.2.1-.4.3-.6.5-.1.2-.2.5-.3.7-.1.3-.1.6-.1.9 0 .7.1 1.3.4 1.7.2.4.7.6 1.4.6zm10.2-2.9c0-.3 0-.5-.1-.7 0-.2-.1-.4-.2-.5-.1-.1-.2-.2-.4-.3-.2-.1-.4-.1-.7-.1-.2 0-.5 0-.7.1-.2 0-.4.1-.5.2-.1.1-.3.3-.3.5-.1.2-.1.5-.1.8v3.8c0 .2-.1.3-.3.4-.2.1-.4.2-.7.2s-.5-.1-.7-.2c-.2-.1-.3-.2-.3-.4V5c0-.2.1-.3.3-.4.2-.1.4-.2.7-.2.3 0 .5.1.6.2.2.2.3.3.3.4v3.4c.1-.2.2-.3.3-.5l.4-.4.6-.3c.2-.1.5-.1.8-.1.4 0 .7.1 1.1.2.3.1.6.3.9.5s.4.5.6.8c.1.4.2.8.2 1.2v4.3c0 .2-.1.3-.2.4-.2.1-.4.2-.7.2-.3 0-.5-.1-.7-.2-.2-.1-.3-.2-.3-.4v-3.6zm5.5 3.7c0 .2-.1.3-.3.4-.2.1-.4.2-.7.2-.3 0-.5 0-.7-.2s-.3-.2-.3-.4V5.3c0-.2.1-.4.2-.5.1-.1.4-.2.7-.2s.6.1.7.2c.1.1.2.3.2.6v4.7l2.8-2.5c.2-.2.4-.3.6-.2.2 0 .4.1.6.3s.5.3.6.6c0 .2-.1.5-.3.7l-2.5 2 2.5 2.2c.3.3.4.5.4.7 0 .2-.1.4-.3.6-.2.1-.4.2-.6.2-.2 0-.4-.1-.6-.2l-3.1-2.6v2.3zm5.8-8.4c0-.3.1-.5.3-.6.2-.2.4-.3.7-.3.3 0 .5.1.7.3.2.2.3.4.3.6 0 .3-.1.5-.3.6-.2.2-.4.3-.7.3-.3 0-.5-.1-.7-.3-.2-.1-.3-.3-.3-.6zm1.9 8.2c0 .2-.1.3-.3.5-.2.1-.4.2-.7.2-.3 0-.5-.1-.7-.2-.2-.1-.3-.3-.3-.5V8.2c0-.3.1-.5.3-.6.2-.1.4-.2.6-.2s.4.1.6.2c.2.1.3.3.3.6V14zM9.7 17c-3.6 0-4.9-1.6-5-1.8-.3-.4-.2-.9.2-1.2.4-.3.9-.2 1.2.2 0 0 .9 1.1 3.7 1.1 3.1 0 3.3-2.4 3.3-2.7v-.7c-.3.1-.7.2-1.1.2-1.1 0-1.9-.5-2.4-1-.5.5-1.3 1-2.4 1-2 0-2.7-1.8-2.8-2.7V2.6c0-.3-.1-.5-.4-.6-.5-.1-1.3.3-2 1.6-.2.5-.5 1.3-.3 1.8.3.5.9.7.9.8.4.1.7.6.6 1-.2.4-.6.7-1.1.5C2 7.7.7 7.3.2 6.1c-.4-1-.2-2.1.4-3.3C1.8.6 3.3.1 4.4.4 5.4.6 6 1.5 6 2.6v6.7c0 .3.2 1.2 1.1 1.2 1.1 0 1.6-.9 1.6-1 .2-.3.5-.5.9-.5.3 0 .6.2.8.5 0 .1.5 1 1.6 1 .9 0 1.1-.9 1.1-1.2V1.7c0-.5.4-.8.8-.8.5 0 .8.4.8.8v11.1c0 1.4-1.1 4.2-5 4.2z"/><path class="st0" d="M11.1 8.5c0 .6-.7 1.1-1.5 1.1s-1.5-.5-1.5-1.1.7-.9 1.5-.9 1.5.3 1.5.9zm-1.5 5.4c-.5 0-1-.2-1.3-.5-.6-.7-.6-1.8-.6-1.9 0-.2.2-.4.5-.4.2 0 .4.2.4.5 0 .2 0 .9.3 1.2.2.1.4.2.7.2.3 0 .5-.1.7-.3.3-.3.4-1 .3-1.2 0-.2.2-.5.4-.5s.5.2.5.4c0 .1.1 1.2-.6 1.9-.3.4-.8.6-1.3.6z"/><path class="st0" d="M9.6 12.3c-.1 0-.2-.1-.2-.2v-1.2c0-.1.1-.2.2-.2s.2.1.2.2V12c0 .2-.1.3-.2.3z"/><circle class="st0" cx="11.6" cy="5.3" r="1"/><circle class="st0" cx="7.6" cy="5.3" r="1"/><path class="st0" d="M6.1 13.4c.3.4.1 1.4-.5 1.9s-1.6.5-1.9 0 .2-1 .8-1.4 1.2-.9 1.6-.5zm42.7-7.2c0-.2 0-.3.1-.5 0-.1.1-.2.2-.3.1-.1.2-.1.4-.1h2.8c.6 0 1.2 0 1.6.1.5.2.8.3 1.1.6.3.2.5.5.6.9.1.4.2.8.2 1.4s-.1 1-.2 1.4c-.1.4-.3.7-.6 1-.3.2-.7.4-1.1.5-.4.1-1 .2-1.6.2h-1.5V14c0 .2-.1.3-.2.5-.1.1-.4.2-.7.2-.3 0-.6-.1-.7-.2-.1-.2-.2-.3-.2-.5V6.2zm1.9 3.7h1.5c.6 0 1.1-.1 1.3-.4.2-.2.3-.6.3-1.2 0-.3 0-.5-.1-.7-.1-.2-.2-.3-.3-.4-.1-.1-.3-.2-.5-.2s-.4-.1-.6-.1h-1.5v3zm9.1 4.9c-.6 0-1.1-.1-1.6-.3-.4-.2-.8-.4-1.1-.7-.3-.3-.5-.7-.7-1.2-.1-.5-.2-1-.2-1.5s.1-1.1.2-1.5c.1-.5.4-.9.7-1.2.3-.3.7-.6 1.1-.8.4-.2 1-.3 1.5-.3.6 0 1 .1 1.4.3.4.2.7.4 1 .7.3.3.4.6.6 1 .1.4.2.8.2 1.3 0 .4-.1.7-.2.8-.1.2-.3.3-.6.3H58c0 .2 0 .4.1.6 0 .2.1.4.3.5.1.2.3.3.5.4.2.1.5.1.8.1.4 0 .8-.1 1-.2.3-.1.4-.3.6-.4.1-.1.2-.2.3-.2h.3c.1 0 .2.1.3.1.1 0 .1.1.2.1.2.1.3.3.2.6 0 .2-.2.5-.4.7-.2.2-.6.4-1 .6-.3.2-.8.2-1.4.2zm1.3-4.3c0-.2 0-.4-.1-.6 0-.2-.1-.4-.2-.5-.1-.2-.2-.3-.4-.4-.2-.1-.4-.1-.7-.1-.4 0-.6.1-.9.2-.2.1-.4.3-.5.4-.1.2-.2.4-.2.6 0 .2-.1.4-.1.6h3.1zm5.7-1.4v3.6c0 .2.1.3.1.4.1.1.1.2.3.2s.3.1.4.1c.2 0 .4 0 .5-.1.2-.1.3-.2.5-.2.2-.1.3-.1.5 0 .1.1.2.2.2.5 0 .2-.1.5-.2.6-.1.2-.3.3-.4.4-.2.1-.4.2-.7.2-.3 0-.5.1-.8.1-.3 0-.6 0-.9-.1-.3 0-.5-.1-.7-.3-.2-.1-.4-.3-.5-.6-.1-.2-.2-.6-.2-.9V9.1h-.6c-.3 0-.5-.1-.6-.2-.1-.1-.1-.3-.1-.6s0-.5.1-.6c.1-.1.3-.2.5-.2h.6v-.7c0-.3.1-.5.2-.6.2-.2.5-.2.9-.2s.7.1.8.2c.1.1.1.3.1.5v.8h1.5c.3 0 .6.1.7.2.1.1.2.3.2.6s0 .5-.2.6c-.1.1-.4.2-.7.2h-1.5zm21.3-3.9c0-.2.1-.4.2-.5.1-.1.4-.2.7-.2s.6.1.7.2c.1.1.2.3.2.5v8.9c0 .2-.1.3-.3.4-.2.1-.4.2-.7.2-.3 0-.5-.1-.7-.2-.2-.1-.3-.2-.3-.4V5.2zm3.7.6c0-.3.1-.5.3-.6.2-.2.4-.3.7-.3.3 0 .5.1.7.3.2.2.3.4.3.6 0 .3-.1.5-.3.6-.2.2-.4.3-.7.3-.3 0-.5-.1-.7-.3-.2-.1-.3-.3-.3-.6zm1.9 8.2c0 .2-.1.3-.3.5-.2.1-.4.2-.7.2-.3 0-.5-.1-.7-.2-.2-.1-.3-.3-.3-.5V8.2c0-.3.1-.5.3-.6.2-.1.4-.2.6-.2.2 0 .4.1.6.2.2.1.3.3.3.6V14zm6.8-3.5c0-.3 0-.5-.1-.7 0-.2-.1-.4-.2-.5-.1-.1-.2-.2-.4-.3-.2-.1-.4-.1-.7-.1-.2 0-.5 0-.7.1-.2 0-.4.1-.5.2-.1.1-.3.3-.3.5-.1.2-.1.5-.1.8v3.8c0 .2-.1.3-.3.4-.2.1-.4.2-.7.2s-.5-.1-.7-.2c-.2-.1-.3-.2-.3-.4V8c0-.2.1-.3.3-.4.2-.1.4-.2.7-.2.3 0 .5.1.6.2.2.1.3.2.3.4v.6c.1-.2.2-.3.3-.5.2-.1.3-.3.5-.4l.6-.3c.2-.1.5-.1.8-.1.4 0 .8.1 1.1.2.3.1.6.3.9.5.2.2.4.5.6.8.1.3.2.7.2 1.1v4.3c0 .2-.1.3-.2.4-.2.1-.4.2-.7.2-.3 0-.5-.1-.7-.2-.2-.1-.3-.2-.3-.4v-3.7zm3.6-4.7c0-.3.1-.5.3-.6.2-.2.4-.3.7-.3.3 0 .5.1.7.3.2.2.3.4.3.6 0 .3-.1.5-.3.6-.2.2-.4.3-.7.3-.3 0-.5-.1-.7-.3-.2-.1-.3-.3-.3-.6zM106 14c0 .2-.1.3-.3.5-.2.1-.4.2-.7.2-.3 0-.5-.1-.7-.2-.2-.1-.3-.3-.3-.5V8.2c0-.3.1-.5.3-.6.2-.1.4-.2.6-.2.2 0 .4.1.6.2.2.1.3.3.3.6V14zm1.5-2.9c0-.5.1-1 .2-1.4.2-.5.4-.9.7-1.2.3-.3.7-.6 1.2-.8.5-.2 1-.3 1.7-.3.5 0 1 .1 1.4.2s.7.3 1 .5c.1.1.2.2.2.3.1.1.1.2.2.3v.4c0 .1-.1.2-.2.3 0 0-.1.1-.2.1-.1.1-.2.1-.3.1h-.3c-.1 0-.2-.1-.4-.2-.2-.2-.4-.4-.6-.5-.2-.1-.5-.2-.8-.2-.3 0-.6.1-.8.2-.2.1-.5.3-.6.5-.2.2-.3.5-.4.7-.1.3-.1.6-.1 1s.1.7.2 1c.1.3.3.5.4.7.2.2.4.3.6.4.2.1.5.1.7.1h.5c.1 0 .2 0 .3-.1.1 0 .1-.1.2-.1s.1-.1.2-.1c.1-.1.2-.1.3-.2s.2-.1.3-.1h.4c.1 0 .3.1.4.2.2.1.3.3.4.4 0 .1 0 .3-.2.6s-.5.6-1 .7c-.5.2-1 .3-1.7.3-.6 0-1.2-.1-1.7-.3-.5-.2-.9-.4-1.2-.8-.3-.3-.6-.7-.7-1.2-.2-.4-.3-.9-.3-1.5zM73.4 9.5c-.4 0-.7-.3-.7-.7V.7c0-.3.1-.5.4-.6.2-.1.4-.1.7 0l3.8 2.7c.3.2.4.7.2 1-.2.3-.7.4-1 .2l-2.7-1.9v6.7c0 .4-.4.7-.7.7zm6.1 2.7c-1.4 0-1.8-1.4-1.8-2.2 0-.2.2-.4.4-.4s.4.2.4.4c0 .1.1 1.4 1.1 1.4s1.1-1.4 1.1-1.4c0-.2.2-.4.4-.4s.4.2.4.4c-.2.8-.7 2.2-2 2.2z"/><path class="st0" d="M79.5 11.3c-.1 0-.3-.1-.3-.3V9.6c0-.1.1-.3.3-.3s.3.1.3.3V11c-.1.2-.2.3-.3.3z"/><circle class="st0" cx="76.8" cy="7.3" r="1"/><circle class="st0" cx="82.2" cy="7.3" r="1"/><path class="st0" d="M79.7 15c-3.9 0-7.1-2.8-7.1-6.2 0-3.4 3.2-6.2 7.1-6.2.4 0 .8 0 1.2.1L84.6.1c.2-.2.5-.2.7 0 .2.1.4.4.4.6v4.9c.1.2.1.4 0 .6-.2.3-.5.5-.8.4-.3-.1-.5-.3-.5-.5l-.6-.6c-1.1-.9-2.5-1.4-4-1.4-3.1 0-5.7 2.1-5.7 4.8s2.5 4.8 5.7 4.8c1.9 0 3.7-.8 4.7-2.2.2-.3.7-.4 1-.1.3.2.4.7.1 1-1.3 1.6-3.5 2.6-5.9 2.6zm3-11.8c.6.2 1.1.6 1.6.9v-2l-1.6 1.1z"/><path class="st0" d="M81.7 16c-.1 0-.2 0-.3-.1l-2-1.3-2 1.3c-.1.1-.2.1-.4.1-.2-.1-.2-.2-.2-.4v-2.8c0-.2.1-.3.2-.4.2-.1.3-.1.5 0l2 1.3 2-1.3c.1-.1.3-.1.5 0s.2.2.2.4v2.8c0 .2-.1.3-.2.4h-.3zm-1.3-1.9l.9.6v-1.1l-.9.5zm-2.7-.5v1.1l.9-.6-.9-.5zm1.8-4c-.1 0-.2 0-.2-.1l-.5-.3c-.2-.1-.2-.4-.1-.6.1-.2.4-.2.6-.1l.2.1.2-.2c.2-.1.5-.1.6.1.1.2.1.5-.1.6l-.5.3c0 .1-.1.2-.2.2z"/><path class="st0" d="M80.4 10.5c-.4 0-.7-.1-.9-.2-.2.1-.5.2-.9.2-.8 0-1.2-.5-1.4-.7-.1-.2 0-.5.2-.6.2-.1.4 0 .6.2 0 0 .2.3.6.3.4 0 .5-.1.6-.1.2-.2.5-.2.7 0 0 0 .2.1.6.1.5 0 .6-.3.6-.3.1-.2.4-.3.6-.2.2.1.3.4.2.6-.3.3-.7.7-1.5.7zm-.5-.9zm-.8 0zm.8 0zm-.8 0zm.7 0zm-.7 0z"/></svg>